<?xml version="1.0" encoding="utf-8"?>
<!-- Generator: Adobe Illustrator 23.0.0, SVG Export Plug-In . SVG Version: 6.00 Build 0)  -->
<svg version="1.1" id="Layer_1" xmlns="http://www.w3.org/2000/svg" xmlns:xlink="http://www.w3.org/1999/xlink" x="0px" y="0px"
	 viewBox="0 0 189.2 156.6" style="enable-background:new 0 0 189.2 156.6;" xml:space="preserve">
<style type="text/css">
	.st0{fill:#2DAAE1;}
	.st1{fill:#8FC648;}
	.st2{display:none;}
	.st3{display:inline;fill:#2DAAE1;}
	.st4{display:inline;}
	.st5{display:inline;fill:none;stroke:#FFFFFF;stroke-width:5;stroke-miterlimit:10;}
</style>
<g>
	<path class="st0" d="M178.1,156.1c-6.3,0-11-4.8-11-11.2c0-5.9,4.8-10.5,10.9-10.5c6.3,0,11.1,4.5,11.1,10.7
		C189.2,151.4,184.5,156.1,178.1,156.1z"/>
	<path class="st1" d="M112.2,62.4c-1.3,0.3-1.7,0.3-3,0.5c-1.5-6.4-0.8-12.4,3-17.9c1.8-2.5,4.5-3.6,7.3-4.6
		c1.8-0.6,3.6-1.2,4.9-2.9c0.9-1.2,1.4-0.5,1.5,0.5c1.2,8.5-1.8,18.8-10.9,23.3C114.3,61.7,113.5,62.1,112.2,62.4z"/>
	<path class="st0" d="M155.4,74.3c-0.1-0.1-0.2-0.2-0.3-0.3c-2.2-2-3.1-3.9-3.5-5.1c-1.3-4.1,0.6-7.3,2.2-10.6
		c1.6-2.5,4.9-12.1,4.9-18.9C158.7,17.6,141,0,119.4,0h-17.1h-0.7H46.3C24.6,0,7,17.6,7,39.3s17.6,39.3,39.3,39.3v0
		c0.2,0,0.4,0,0.6,0c17.2,0,31.1,14,31.1,31.1c0,17.2-14,31.1-31.1,31.1c-17.2,0-31.1-14-31.1-31.1c0-4.3-3.5-7.9-7.9-7.9
		c-4.3,0-7.9,3.5-7.9,7.9c0,25.8,21,46.8,46.8,46.8h78.1c25.8,0,46.8-21,46.8-46.8C171.8,95.6,165.4,82.8,155.4,74.3z M124.9,140.8
		H81.8c7.4-8.3,11.9-19.2,11.9-31.1c0-25.8-21-46.8-46.8-46.8c-0.2,0-0.4,0-0.6,0v0c-13,0-23.6-10.6-23.6-23.6
		c0-13,10.6-23.6,23.6-23.6h55.3h0.7h17.1c13,0,23.6,10.6,23.6,23.6c0,13-10.6,23.6-23.6,23.6h-7.1c-4.3,0-7.9,3.5-7.9,7.9
		s3.5,7.9,7.9,7.9h12.6c17.2,0,31.1,14,31.1,31.1C156,126.9,142.1,140.8,124.9,140.8z"/>
</g>
<g class="st2">
	<path class="st3" d="M171.7,1270.6h-48.9v14.6h48.9c10.3,0,18.6,8.3,18.6,18.6v17.4c0,10.3-8.3,18.6-18.6,18.6h-48.9
		c-10.1,0-18.3-8-18.6-18v-18.1l-14.6-7.4v23l0,0v1.9c0,18.3,14.9,33.2,33.2,33.2h48.9c18.3,0,33.2-14.9,33.2-33.2v-17.4
		C204.8,1285.5,190,1270.6,171.7,1270.6z"/>
	<path class="st3" d="M204.8,1241.3v-6.7c0-18.3-14.9-33.2-33.2-33.2h-48.9c-18.3,0-33.2,14.9-33.2,33.2v17.4
		c0,18.3,14.9,33.2,33.2,33.2h48.9v-14.6h-48.9c-10.3,0-18.6-8.3-18.6-18.6v-17.4c0-10.3,8.3-18.6,18.6-18.6h48.9
		c10.1,0,18.3,8,18.6,18v8.7l14.6,7.4L204.8,1241.3L204.8,1241.3z"/>
	<path class="st3" d="M155.1,1229.1c-1.2-0.4-2.5-0.6-3.8-0.6h-23.2c-6.4,0-8,5.2-8,11.5v6.6c0,6.4,1.6,11.5,8,11.5h15h8.3h1.2
		c7.6,0,13.8-6.2,13.8-13.8v-1.7C166.3,1235.9,161.5,1230.3,155.1,1229.1z"/>
	<path class="st3" d="M155.1,1298.3c-1.2-0.4-2.5-0.6-3.8-0.6h-23.2c-6.4,0-8,5.2-8,11.5v6.6c0,6.4,1.6,11.5,8,11.5h15h8.3h1.2
		c7.6,0,13.8-6.2,13.8-13.8v-1.7C166.3,1305.1,161.5,1299.5,155.1,1298.3z"/>
	<g class="st4">
		<g>
			<text transform="matrix(1 0 0 1 244.7956 1275.8469)" class="st0" style="font-family:'ArialMT'; font-size:61.0869px;">S.B. Web</text>
		</g>
		<g>
			<text transform="matrix(1 0 0 1 244.7956 1322.1526)" class="st0" style="font-family:'ArialMT'; font-size:45.5879px;">Technology</text>
		</g>
	</g>
	<path class="st5" d="M163.8,1198.5"/>
</g>
</svg>
